<svg xmlns="http://www.w3.org/2000/svg" xmlns:xlink="http://www.w3.org/1999/xlink" width="500" zoomAndPan="magnify" viewBox="0 0 375 374.999991" height="500" preserveAspectRatio="xMidYMid meet" version="1.0"><defs><g/><clipPath id="3f9b5045f2"><path d="M 76.777344 73 L 298.027344 73 L 298.027344 302 L 76.777344 302 Z M 76.777344 73 " clip-rule="nonzero"/></clipPath></defs><g clip-path="url(#3f9b5045f2)"><path fill="#ffffff" d="M 159.660156 76.703125 C 161.453125 76.253906 163.257812 75.847656 165.070312 75.484375 C 166.882812 75.121094 168.703125 74.804688 170.535156 74.53125 C 172.363281 74.257812 174.199219 74.027344 176.039062 73.84375 C 177.878906 73.65625 179.722656 73.519531 181.566406 73.421875 C 183.414062 73.328125 185.261719 73.277344 187.113281 73.273438 C 188.960938 73.265625 190.808594 73.304688 192.65625 73.390625 C 194.503906 73.476562 196.347656 73.605469 198.191406 73.777344 C 200.03125 73.953125 201.867188 74.171875 203.699219 74.433594 C 205.527344 74.699219 207.351562 75.007812 209.167969 75.359375 C 210.980469 75.710938 212.789062 76.105469 214.585938 76.546875 C 216.378906 76.984375 218.164062 77.46875 219.9375 77.996094 C 221.710938 78.519531 223.46875 79.089844 225.214844 79.703125 C 226.960938 80.3125 228.6875 80.96875 230.402344 81.664062 C 232.117188 82.359375 233.8125 83.097656 235.488281 83.875 C 237.167969 84.652344 238.824219 85.472656 240.460938 86.328125 C 242.101562 87.1875 243.714844 88.085938 245.308594 89.023438 C 246.90625 89.960938 248.476562 90.9375 250.023438 91.949219 C 251.570312 92.964844 253.089844 94.015625 254.585938 95.101562 C 256.082031 96.191406 257.550781 97.3125 258.992188 98.472656 C 260.433594 99.628906 261.84375 100.824219 263.226562 102.050781 C 264.609375 103.277344 265.964844 104.539062 267.285156 105.832031 C 268.605469 107.125 269.898438 108.449219 271.152344 109.804688 C 272.410156 111.164062 273.636719 112.546875 274.824219 113.964844 C 276.015625 115.378906 277.171875 116.820312 278.292969 118.292969 C 279.410156 119.765625 280.496094 121.261719 281.542969 122.789062 C 282.589844 124.3125 283.597656 125.859375 284.570312 127.433594 C 285.542969 129.007812 286.476562 130.601562 287.371094 132.222656 C 288.265625 133.839844 289.121094 135.480469 289.9375 137.140625 C 290.75 138.800781 291.523438 140.476562 292.257812 142.175781 C 292.992188 143.875 293.683594 145.589844 294.332031 147.320312 C 294.984375 149.050781 295.589844 150.796875 296.15625 152.558594 C 296.722656 154.320312 297.242188 156.09375 297.722656 157.878906 C 297.898438 158.539062 298.074219 159.210938 298.242188 159.894531 L 296.496094 160.503906 C 296.316406 159.785156 296.136719 159.070312 295.941406 158.351562 C 295.46875 156.582031 294.949219 154.824219 294.390625 153.078125 C 293.832031 151.335938 293.226562 149.605469 292.582031 147.886719 C 291.9375 146.171875 291.25 144.472656 290.523438 142.792969 C 289.792969 141.109375 289.023438 139.445312 288.214844 137.800781 C 287.40625 136.15625 286.554688 134.535156 285.667969 132.929688 C 284.777344 131.328125 283.851562 129.75 282.882812 128.191406 C 281.917969 126.632812 280.914062 125.101562 279.871094 123.59375 C 278.828125 122.085938 277.75 120.601562 276.636719 119.148438 C 275.523438 117.691406 274.375 116.265625 273.191406 114.867188 C 272.007812 113.464844 270.789062 112.097656 269.539062 110.757812 C 268.285156 109.417969 267.003906 108.109375 265.6875 106.832031 C 264.371094 105.554688 263.027344 104.3125 261.652344 103.101562 C 260.273438 101.890625 258.871094 100.714844 257.4375 99.574219 C 256.003906 98.429688 254.542969 97.324219 253.054688 96.253906 C 251.566406 95.183594 250.054688 94.148438 248.515625 93.152344 C 246.976562 92.15625 245.414062 91.199219 243.828125 90.277344 C 242.242188 89.359375 240.636719 88.480469 239.007812 87.636719 C 237.378906 86.796875 235.730469 85.996094 234.0625 85.234375 C 232.398438 84.472656 230.710938 83.753906 229.007812 83.078125 C 227.304688 82.398438 225.585938 81.761719 223.851562 81.167969 C 222.117188 80.574219 220.371094 80.023438 218.609375 79.515625 C 216.847656 79.007812 215.078125 78.542969 213.292969 78.121094 C 211.507812 77.699219 209.714844 77.320312 207.914062 76.988281 C 206.113281 76.652344 204.300781 76.363281 202.484375 76.121094 C 200.667969 75.875 198.847656 75.675781 197.023438 75.519531 C 195.195312 75.363281 193.367188 75.25 191.535156 75.183594 C 189.703125 75.117188 187.871094 75.097656 186.039062 75.121094 C 184.207031 75.144531 182.375 75.210938 180.546875 75.324219 C 178.714844 75.4375 176.890625 75.59375 175.070312 75.796875 C 173.246094 76 171.429688 76.246094 169.621094 76.539062 C 167.8125 76.828125 166.011719 77.164062 164.21875 77.542969 C 162.425781 77.921875 160.640625 78.347656 158.867188 78.8125 C 159.144531 78.117188 159.414062 77.417969 159.660156 76.707031 Z M 78.523438 214.730469 C 78.671875 215.320312 78.820312 215.902344 78.976562 216.488281 C 79.453125 218.265625 79.972656 220.027344 80.535156 221.777344 C 81.097656 223.527344 81.703125 225.261719 82.347656 226.980469 C 82.996094 228.699219 83.683594 230.402344 84.414062 232.089844 C 85.148438 233.773438 85.917969 235.441406 86.730469 237.089844 C 87.542969 238.738281 88.394531 240.363281 89.289062 241.972656 C 90.179688 243.578125 91.113281 245.160156 92.082031 246.722656 C 93.054688 248.28125 94.0625 249.816406 95.105469 251.328125 C 96.152344 252.839844 97.234375 254.324219 98.351562 255.78125 C 99.472656 257.238281 100.625 258.667969 101.8125 260.070312 C 103.003906 261.472656 104.222656 262.84375 105.480469 264.183594 C 106.734375 265.527344 108.023438 266.835938 109.34375 268.113281 C 110.664062 269.390625 112.015625 270.636719 113.398438 271.847656 C 114.777344 273.058594 116.1875 274.238281 117.628906 275.378906 C 119.066406 276.523438 120.53125 277.628906 122.027344 278.699219 C 123.519531 279.769531 125.039062 280.804688 126.582031 281.800781 C 128.125 282.796875 129.695312 283.753906 131.285156 284.671875 C 132.875 285.59375 134.488281 286.472656 136.125 287.3125 C 137.757812 288.152344 139.410156 288.949219 141.085938 289.710938 C 142.757812 290.46875 144.449219 291.1875 146.160156 291.863281 C 147.867188 292.539062 149.589844 293.171875 151.332031 293.761719 C 153.070312 294.351562 154.824219 294.902344 156.589844 295.40625 C 158.359375 295.910156 160.136719 296.375 161.925781 296.792969 C 163.714844 297.207031 165.511719 297.582031 167.320312 297.914062 C 169.128906 298.242188 170.945312 298.527344 172.765625 298.765625 C 174.585938 299.007812 176.414062 299.203125 178.246094 299.355469 C 180.078125 299.503906 181.910156 299.609375 183.746094 299.671875 C 185.582031 299.734375 187.421875 299.75 189.257812 299.71875 C 191.09375 299.691406 192.929688 299.617188 194.765625 299.496094 C 196.597656 299.375 198.425781 299.210938 200.253906 299.003906 C 202.078125 298.792969 203.898438 298.539062 205.710938 298.242188 C 207.523438 297.941406 209.328125 297.601562 211.125 297.214844 C 212.921875 296.828125 214.707031 296.394531 216.480469 295.921875 C 216.195312 296.617188 215.917969 297.320312 215.660156 298.03125 C 213.863281 298.488281 212.058594 298.902344 210.242188 299.273438 C 208.425781 299.640625 206.601562 299.964844 204.769531 300.246094 C 202.9375 300.527344 201.101562 300.765625 199.257812 300.953125 C 197.414062 301.144531 195.566406 301.292969 193.714844 301.394531 C 191.863281 301.496094 190.011719 301.550781 188.15625 301.5625 C 186.304688 301.574219 184.453125 301.539062 182.597656 301.460938 C 180.746094 301.378906 178.898438 301.257812 177.054688 301.085938 C 175.207031 300.917969 173.367188 300.703125 171.53125 300.445312 C 169.695312 300.1875 167.867188 299.882812 166.046875 299.535156 C 164.226562 299.1875 162.414062 298.792969 160.613281 298.359375 C 158.8125 297.921875 157.023438 297.441406 155.246094 296.917969 C 153.464844 296.394531 151.703125 295.828125 149.953125 295.21875 C 148.199219 294.609375 146.464844 293.960938 144.746094 293.265625 C 143.027344 292.570312 141.328125 291.835938 139.644531 291.058594 C 137.960938 290.285156 136.296875 289.46875 134.65625 288.609375 C 133.011719 287.75 131.390625 286.855469 129.789062 285.917969 C 128.191406 284.980469 126.613281 284.007812 125.0625 282.992188 C 123.511719 281.980469 121.984375 280.929688 120.484375 279.84375 C 118.984375 278.753906 117.507812 277.632812 116.0625 276.472656 C 114.617188 275.3125 113.199219 274.117188 111.8125 272.890625 C 110.421875 271.660156 109.066406 270.398438 107.738281 269.105469 C 106.414062 267.8125 105.117188 266.484375 103.855469 265.128906 C 102.59375 263.769531 101.367188 262.382812 100.171875 260.964844 C 98.976562 259.546875 97.816406 258.101562 96.695312 256.628906 C 95.570312 255.15625 94.480469 253.65625 93.429688 252.128906 C 92.378906 250.601562 91.367188 249.050781 90.390625 247.472656 C 89.414062 245.898438 88.480469 244.296875 87.582031 242.675781 C 86.683594 241.054688 85.828125 239.414062 85.007812 237.75 C 84.191406 236.085938 83.414062 234.402344 82.679688 232.703125 C 81.941406 231 81.25 229.28125 80.597656 227.546875 C 79.945312 225.8125 79.335938 224.0625 78.769531 222.296875 C 78.203125 220.53125 77.679688 218.753906 77.199219 216.964844 C 77.054688 216.425781 76.917969 215.882812 76.777344 215.34375 Z M 78.523438 214.730469 " fill-opacity="1" fill-rule="evenodd"/></g><g fill="#ffffff" fill-opacity="1"><g transform="translate(97.457712, 196.7959)"><g><path d="M 21.40625 -2.015625 C 20.789062 -1.503906 19.8125 -0.992188 18.46875 -0.484375 C 17.125 0.015625 15.65625 0.265625 14.0625 0.265625 C 11.53125 0.265625 9.328125 -0.285156 7.453125 -1.390625 C 5.578125 -2.492188 4.140625 -3.976562 3.140625 -5.84375 C 2.148438 -7.707031 1.65625 -9.753906 1.65625 -11.984375 C 1.65625 -14.429688 2.148438 -16.613281 3.140625 -18.53125 C 4.140625 -20.445312 5.53125 -21.941406 7.3125 -23.015625 C 9.101562 -24.085938 11.164062 -24.625 13.5 -24.625 C 14.976562 -24.625 16.34375 -24.425781 17.59375 -24.03125 C 18.851562 -23.632812 19.960938 -23.132812 20.921875 -22.53125 L 19.03125 -18 C 17.289062 -19.320312 15.503906 -19.984375 13.671875 -19.984375 C 12.429688 -19.984375 11.269531 -19.640625 10.1875 -18.953125 C 9.113281 -18.273438 8.253906 -17.34375 7.609375 -16.15625 C 6.972656 -14.976562 6.65625 -13.675781 6.65625 -12.25 C 6.65625 -10.675781 6.953125 -9.300781 7.546875 -8.125 C 8.140625 -6.945312 8.988281 -6.023438 10.09375 -5.359375 C 11.195312 -4.703125 12.488281 -4.375 13.96875 -4.375 C 15.15625 -4.375 16.222656 -4.566406 17.171875 -4.953125 C 18.117188 -5.335938 18.867188 -5.796875 19.421875 -6.328125 Z M 21.40625 -2.015625 "/></g></g></g><g fill="#ffffff" fill-opacity="1"><g transform="translate(146.99081, 196.7959)"><g><path d="M 1.65625 -12.140625 C 1.65625 -14.347656 2.210938 -16.410156 3.328125 -18.328125 C 4.441406 -20.253906 5.953125 -21.785156 7.859375 -22.921875 C 9.765625 -24.054688 11.832031 -24.625 14.0625 -24.625 C 16.289062 -24.625 18.359375 -24.054688 20.265625 -22.921875 C 22.171875 -21.785156 23.691406 -20.253906 24.828125 -18.328125 C 25.972656 -16.410156 26.546875 -14.347656 26.546875 -12.140625 C 26.546875 -9.890625 25.972656 -7.816406 24.828125 -5.921875 C 23.691406 -4.023438 22.171875 -2.519531 20.265625 -1.40625 C 18.359375 -0.289062 16.289062 0.265625 14.0625 0.265625 C 11.8125 0.265625 9.738281 -0.289062 7.84375 -1.40625 C 5.945312 -2.519531 4.441406 -4.023438 3.328125 -5.921875 C 2.210938 -7.816406 1.65625 -9.890625 1.65625 -12.140625 Z M 6.625 -12.140625 C 6.625 -10.734375 6.957031 -9.429688 7.625 -8.234375 C 8.300781 -7.046875 9.21875 -6.101562 10.375 -5.40625 C 11.53125 -4.71875 12.816406 -4.375 14.234375 -4.375 C 15.597656 -4.375 16.84375 -4.71875 17.96875 -5.40625 C 19.09375 -6.101562 19.972656 -7.039062 20.609375 -8.21875 C 21.253906 -9.40625 21.578125 -10.710938 21.578125 -12.140625 C 21.578125 -13.597656 21.242188 -14.921875 20.578125 -16.109375 C 19.921875 -17.304688 19.023438 -18.25 17.890625 -18.9375 C 16.753906 -19.632812 15.488281 -19.984375 14.09375 -19.984375 C 12.707031 -19.984375 11.445312 -19.632812 10.3125 -18.9375 C 9.175781 -18.25 8.273438 -17.304688 7.609375 -16.109375 C 6.953125 -14.921875 6.625 -13.597656 6.625 -12.140625 Z M 6.625 -12.140625 "/></g></g></g><g fill="#ffffff" fill-opacity="1"><g transform="translate(201.651618, 196.7959)"><g><path d="M 1.65625 -12.140625 C 1.65625 -14.347656 2.210938 -16.410156 3.328125 -18.328125 C 4.441406 -20.253906 5.953125 -21.785156 7.859375 -22.921875 C 9.765625 -24.054688 11.832031 -24.625 14.0625 -24.625 C 16.289062 -24.625 18.359375 -24.054688 20.265625 -22.921875 C 22.171875 -21.785156 23.691406 -20.253906 24.828125 -18.328125 C 25.972656 -16.410156 26.546875 -14.347656 26.546875 -12.140625 C 26.546875 -9.890625 25.972656 -7.816406 24.828125 -5.921875 C 23.691406 -4.023438 22.171875 -2.519531 20.265625 -1.40625 C 18.359375 -0.289062 16.289062 0.265625 14.0625 0.265625 C 11.8125 0.265625 9.738281 -0.289062 7.84375 -1.40625 C 5.945312 -2.519531 4.441406 -4.023438 3.328125 -5.921875 C 2.210938 -7.816406 1.65625 -9.890625 1.65625 -12.140625 Z M 6.625 -12.140625 C 6.625 -10.734375 6.957031 -9.429688 7.625 -8.234375 C 8.300781 -7.046875 9.21875 -6.101562 10.375 -5.40625 C 11.53125 -4.71875 12.816406 -4.375 14.234375 -4.375 C 15.597656 -4.375 16.84375 -4.71875 17.96875 -5.40625 C 19.09375 -6.101562 19.972656 -7.039062 20.609375 -8.21875 C 21.253906 -9.40625 21.578125 -10.710938 21.578125 -12.140625 C 21.578125 -13.597656 21.242188 -14.921875 20.578125 -16.109375 C 19.921875 -17.304688 19.023438 -18.25 17.890625 -18.9375 C 16.753906 -19.632812 15.488281 -19.984375 14.09375 -19.984375 C 12.707031 -19.984375 11.445312 -19.632812 10.3125 -18.9375 C 9.175781 -18.25 8.273438 -17.304688 7.609375 -16.109375 C 6.953125 -14.921875 6.625 -13.597656 6.625 -12.140625 Z M 6.625 -12.140625 "/></g></g></g><g fill="#ffffff" fill-opacity="1"><g transform="translate(256.31243, 196.7959)"><g><path d="M 7.9375 -24.359375 L 7.9375 -4.640625 L 19.390625 -4.640625 L 19.390625 0 L 3.140625 0 L 3.140625 -24.359375 Z M 7.9375 -24.359375 "/></g></g></g><g fill="#ffffff" fill-opacity="1"><g transform="translate(165.085448, 226.574878)"><g><path d="M 4.90625 -4.1875 C 5.351562 -4.007812 5.703125 -3.757812 5.953125 -3.4375 C 6.210938 -3.113281 6.34375 -2.738281 6.34375 -2.3125 C 6.34375 -1.53125 6.078125 -0.945312 5.546875 -0.5625 C 5.023438 -0.1875 4.378906 0 3.609375 0 L 1.109375 0 L 1.109375 -8.03125 L 3.296875 -8.03125 C 4.140625 -8.03125 4.789062 -7.859375 5.25 -7.515625 C 5.71875 -7.171875 5.953125 -6.671875 5.953125 -6.015625 C 5.953125 -5.597656 5.859375 -5.234375 5.671875 -4.921875 C 5.492188 -4.617188 5.238281 -4.375 4.90625 -4.1875 Z M 2.390625 -4.609375 L 3.515625 -4.609375 C 3.878906 -4.609375 4.15625 -4.710938 4.34375 -4.921875 C 4.53125 -5.140625 4.625 -5.410156 4.625 -5.734375 C 4.625 -6.085938 4.507812 -6.351562 4.28125 -6.53125 C 4.0625 -6.707031 3.753906 -6.796875 3.359375 -6.796875 L 2.390625 -6.796875 Z M 3.546875 -1.1875 C 3.984375 -1.1875 4.335938 -1.28125 4.609375 -1.46875 C 4.878906 -1.65625 5.015625 -1.929688 5.015625 -2.296875 C 5.015625 -2.679688 4.863281 -2.957031 4.5625 -3.125 C 4.269531 -3.289062 3.90625 -3.375 3.46875 -3.375 L 2.390625 -3.375 L 2.390625 -1.1875 Z M 3.546875 -1.1875 "/></g></g></g><g fill="#ffffff" fill-opacity="1"><g transform="translate(176.447667, 226.574878)"><g><path d="M 5.234375 -1.890625 L 2.3125 -1.890625 L 1.53125 0 L 0.265625 0 L 3.8125 -8.359375 L 3.890625 -8.359375 L 7.453125 0 L 5.96875 0 Z M 4.796875 -2.984375 L 3.796875 -5.53125 L 2.75 -2.984375 Z M 4.796875 -2.984375 "/></g></g></g><g fill="#ffffff" fill-opacity="1"><g transform="translate(188.571043, 226.574878)"><g><path d="M 8.203125 -8.03125 L 8.203125 0.28125 L 8.15625 0.28125 L 2.375 -5.328125 L 2.40625 0 L 1.109375 0 L 1.109375 -8.3125 L 1.171875 -8.3125 L 6.9375 -2.625 L 6.921875 -8.03125 Z M 8.203125 -8.03125 "/></g></g></g><g fill="#ffffff" fill-opacity="1"><g transform="translate(202.293953, 226.574878)"><g><path d="M 2.375 -4.546875 L 2.546875 -4.796875 L 5.578125 -8.03125 L 7.21875 -8.03125 L 3.90625 -4.515625 L 7.34375 0 L 5.71875 0 L 2.96875 -3.703125 L 2.40625 -3.15625 L 2.40625 0 L 1.109375 0 L 1.109375 -8.03125 L 2.40625 -8.03125 L 2.40625 -4.953125 Z M 2.375 -4.546875 "/></g></g></g></svg>