<svg width="23" height="22" viewBox="0 0 23 22" fill="none" xmlns="http://www.w3.org/2000/svg">
<path fill-rule="evenodd" clip-rule="evenodd" d="M11.5 0.6875C10.7406 0.6875 10.125 1.30311 10.125 2.0625V6.1875C10.125 6.94689 10.7406 7.5625 11.5 7.5625C12.2594 7.5625 12.875 6.94689 12.875 6.1875V2.0625C12.875 1.30311 12.2594 0.6875 11.5 0.6875ZM18.792 3.70796C18.2551 3.17099 17.3845 3.17099 16.8475 3.70796L13.9307 6.62478C13.3937 7.16175 13.3937 8.03235 13.9307 8.56932C14.4676 9.10629 15.3382 9.10629 15.8752 8.56932L18.792 5.65251C19.329 5.11554 19.329 4.24493 18.792 3.70796ZM20.4375 9.625C21.1969 9.625 21.8125 10.2406 21.8125 11C21.8125 11.7594 21.1969 12.375 20.4375 12.375H16.3125C15.5531 12.375 14.9375 11.7594 14.9375 11C14.9375 10.2406 15.5531 9.625 16.3125 9.625H20.4375ZM18.792 18.292C19.329 17.7551 19.329 16.8845 18.792 16.3475L15.8752 13.4307C15.3383 12.8937 14.4676 12.8937 13.9307 13.4307C13.3937 13.9676 13.3937 14.8382 13.9307 15.3752L16.8475 18.292C17.3845 18.829 18.2551 18.829 18.792 18.292ZM10.125 15.8125C10.125 15.0531 10.7406 14.4375 11.5 14.4375C12.2594 14.4375 12.875 15.0531 12.875 15.8125V19.9375C12.875 20.6969 12.2594 21.3125 11.5 21.3125C10.7406 21.3125 10.125 20.6969 10.125 19.9375V15.8125ZM9.06933 13.4307C8.53236 12.8937 7.66175 12.8937 7.12478 13.4307L4.20797 16.3475C3.671 16.8845 3.671 17.7551 4.20797 18.2921C4.74494 18.829 5.61554 18.829 6.15251 18.2921L9.06933 15.3752C9.6063 14.8383 9.6063 13.9677 9.06933 13.4307ZM6.6875 9.625C7.44689 9.625 8.0625 10.2406 8.0625 11C8.0625 11.7594 7.44689 12.375 6.6875 12.375H2.5625C1.80311 12.375 1.1875 11.7594 1.1875 11C1.1875 10.2406 1.80311 9.625 2.5625 9.625H6.6875ZM9.06933 8.56931C9.6063 8.03234 9.6063 7.16173 9.06933 6.62476L6.15251 3.70795C5.61554 3.17098 4.74494 3.17098 4.20797 3.70795C3.671 4.24492 3.671 5.11552 4.20797 5.65249L7.12479 8.56931C7.66176 9.10628 8.53236 9.10628 9.06933 8.56931Z" fill="white"/>
</svg>
